<?xml version="1.0" encoding="UTF-8"?>
<svg id="Layer_5" data-name="Layer 5" xmlns="http://www.w3.org/2000/svg" viewBox="0 0 85 64.95">
  <defs>
    <style>
      .cls-1 {
        fill: #fff;
      }

      .cls-2 {
        fill: #4b154c;
      }

      .cls-3 {
        fill: #d3a06c;
      }

      .cls-4 {
        fill: #f0d0b4;
        stroke: #000;
        stroke-miterlimit: 10;
        stroke-width: 1.27px;
      }
    </style>
  </defs>
  <path class="cls-3" d="m3.24,47.42c-1.79,0-3.24,1.45-3.24,3.24v11.04c0,1.79,1.45,3.24,3.24,3.24h78.52c1.79,0,3.24-1.45,3.24-3.24v-11.04c0-1.79-1.45-3.24-3.24-3.24H3.24Z"/>
  <path class="cls-1" d="m59.25,46.66v-6.48c0-6.3-5.02-11.41-11.23-11.41h-1.19c-2.1,2.28-4.66,3.84-7.67,3.84-2.83,0-5.48-1.55-7.58-3.84h-1.28c-6.3,0-11.32,5.11-11.32,11.41v6.48h40.27Z"/>
  <path class="cls-2" d="m18.36,45.8v-4.4c0-6.52,7.24-12.41,12.35-12.55,3.4,3.83,4.21,3.05,8.29,3.05s5.33.5,8.73-3.47c4.99.28,11.7,6.45,11.7,12.97v4.4H18.36Z"/>
  <path class="cls-3" d="m48.57,15.89s.37-1.28,1.64-2.47v-6.21s0-2.65-2.92-3.38c0,0,1.1-2.01-1.55-3.01h-10.96s-6.12.37-6.76,6.3v6.21s1.46.64,1.73,3.1l-.09-5.11s.73-3.01,3.38-3.1c0,0,4.47.64,7.76-1.55,0,0,3.29,1.1,3.65,1.19,0,0,4.11.82,3.93,5.02l.18,3.01Z"/>
  <path class="cls-4" d="m44.55,7.85c-.37-.09-3.65-1.19-3.65-1.19-3.38,2.19-7.76,1.55-7.76,1.55-2.65.09-3.38,3.1-3.38,3.1l.09,5.11v-.18c.46,5.11,4.47,11.41,9.41,11.41s9.31-6.94,9.41-12.05l-.09-2.83c.09-4.11-4.02-4.93-4.02-4.93h0Z"/>
  <path class="cls-1" d="m44.73,47.39l-3.38-13.15h25.39l-3.29,13.15h-18.72Z"/>
  <path d="m61.17,52.6c-1.64,0-2.92,1.28-2.92,2.92s1.28,2.92,2.92,2.92,2.92-1.28,2.92-2.92-1.37-2.92-2.92-2.92Zm0,4.02c-.64,0-1.1-.46-1.1-1.1s.46-1.1,1.1-1.1,1.1.46,1.1,1.1-.55,1.1-1.1,1.1Z"/>
  <path d="m48.29,52.6c-1.64,0-2.92,1.28-2.92,2.92s1.28,2.92,2.92,2.92,2.92-1.28,2.92-2.92-1.28-2.92-2.92-2.92Zm0,4.02c-.64,0-1.1-.46-1.1-1.1s.46-1.1,1.1-1.1,1.1.46,1.1,1.1-.46,1.1-1.1,1.1Z"/>
  <path d="m70.39,29.95l-5.02,19.82h-22.19v1.83h23.65l4.93-19.82h3.84v-1.83h-5.2Z"/>
  <path d="m44,48.31h20.18l3.74-14.98h-9.86c-2.19-3.29-5.84-5.39-10.04-5.39h-1.64c-2.01,2.19-4.29,3.84-7.31,3.84s-5.2-1.64-7.21-3.84h-1.73c-6.57-.09-12.05,5.48-12.05,12.24v7.4h25.75l.18.73Zm21.64-13.15l-2.92,11.32h-17.35l-2.83-11.32h23.1Zm-18.45-5.48c3.38,0,6.21.82,8.58,3.56h-14.61c2.19-.46,4.2-1.64,6.03-3.56h0Zm-27.3,16.07v-5.57c0-5.11,3.65-10.5,11.23-10.5,2.47,2.47,5.2,3.84,8.04,3.84.37,0,.73,0,1.1-.09l3.1,12.33h-23.47Z"/>
  <path d="m28.84,16.44c.46,5.11,4.66,12.24,10.32,12.24s9.95-6.76,10.32-12.51.46-1.46,1.64-2.28v-6.67c0-1-.64-3.01-2.74-3.93v-.37c0-2.19-2.56-2.92-2.56-2.92h-11.14c-2.37.09-7.03,1.83-7.67,7.12v6.85c.09,0,1.55.37,1.83,2.47Zm10.32,10.41c-4.2,0-7.94-5.57-8.49-10.41l-.09-5.02c1.28-4.2,4.84-.55,10.41-3.74,3.38,1.19,6.57,1.46,6.57,4.84v.27l.09,2.83c-.18,5.11-4.11,11.23-8.49,11.23h0ZM28.93,7.31c.55-5.11,5.66-5.48,5.84-5.48h10.78c.82.27,1,.73,1,1.1,0,.27-.09.46-.09.46l-.55,1,1.19.27c2.19.55,2.28,2.28,2.28,2.47v4.38c-.27-1.83-1.73-3.84-3.56-4.29s-4.84-1.64-5.02-1.64c0,0-2.01,1.73-6.21,1.73-.91,0-1.55-.09-1.55-.09-3.01,0-4.11,3.29-4.11,3.29v-3.2Z"/>
  <g>
    <path d="m60.96,23.15c-.46-.12-.93.16-1.05.62l-.65,2.51c-.12.46.16.93.62,1.05s.93-.16,1.05-.62l.65-2.51c.12-.46-.16-.93-.62-1.05Z"/>
    <path d="m57.27,26.03l-1.24-2.1c-.24-.41-.77-.55-1.18-.31-.41.24-.55.77-.31,1.18l1.24,2.1c.24.41.77.55,1.18.31s.55-.77.31-1.18Z"/>
    <path d="m66.06,26.52c-.24-.41-.77-.55-1.18-.31l-2.1,1.24c-.41.24-.55.77-.31,1.18s.77.55,1.18.31l2.1-1.24c.41-.24.55-.77.31-1.18Z"/>
  </g>
  <path class="cls-2" d="m59.73,39.3s-.02-.06-.03-.09c0,0,0-.01,0-.02,0,0,0,0,0,0,0,0,0,0,0,0l-1.11-2.2s0,0-.01-.01c0,0,0-.01,0-.02,0-.01-.02-.02-.03-.04,0-.01-.02-.03-.03-.04-.02-.02-.03-.03-.05-.04-.01,0-.02-.02-.04-.03-.02-.01-.04-.02-.07-.03-.01,0-.02-.01-.04-.01-.04-.01-.07-.02-.11-.02h-6.12s-.07,0-.11.01c-.01,0-.02,0-.03.01-.02,0-.04.01-.06.03-.01,0-.02.02-.03.02-.02.01-.03.02-.05.04-.01.01-.02.02-.03.03-.01.01-.02.02-.03.04l-1.34,2.2s0,.02-.01.03c0,0-.01.01-.01.02,0,0,0,.02,0,.02,0,.02-.01.04-.02.06,0,.02,0,.03,0,.05,0,.02,0,.04,0,.06,0,.02,0,.03,0,.05,0,.02.01.04.02.06,0,.02.01.03.02.05,0,0,0,.01,0,.02,0,.01.02.02.03.04,0,.01.01.02.02.03l4.43,5.03c.08.09.19.15.3.15,0,0,0,0,0,0,0,0,.01,0,.02,0h0s.07,0,.11-.02c.01,0,.02,0,.03-.01.03,0,.05-.02.07-.04,0,0,.02,0,.02-.01.03-.02.05-.04.07-.07l4.14-5.03s0-.01.01-.02c0,0,.01-.02.02-.03,0,0,0-.02.01-.03,0-.01.01-.03.02-.04,0-.02.01-.04.02-.06,0-.01,0-.03,0-.04,0-.02,0-.05,0-.07,0-.01,0-.03,0-.04Z"/>
</svg>