<?xml version="1.0" encoding="UTF-8"?>
<svg id="Layer_5" data-name="Layer 5" xmlns="http://www.w3.org/2000/svg" viewBox="0 0 85 67.1">
  <defs>
    <style>
      .cls-1 {
        fill: #e69012;
      }

      .cls-2 {
        fill: #f0d0b4;
      }

      .cls-2, .cls-3, .cls-4, .cls-5, .cls-6 {
        fill-rule: evenodd;
      }

      .cls-7, .cls-4 {
        fill: #d3a06c;
      }

      .cls-3 {
        fill: #4b154c;
      }

      .cls-8, .cls-5 {
        fill: #333;
      }

      .cls-9 {
        fill: #f7cca9;
      }

      .cls-10 {
        fill: #ffcd34;
      }
    </style>
  </defs>
  <path class="cls-7" d="m3.24,49.58c-1.79,0-3.24,1.45-3.24,3.24v11.04c0,1.79,1.45,3.24,3.24,3.24h78.52c1.79,0,3.24-1.45,3.24-3.24v-11.04c0-1.79-1.45-3.24-3.24-3.24H3.24Z"/>
  <path class="cls-5" d="m19.34,47.87v-3.91c0-.67.53-1.22,1.17-1.22s1.17.54,1.17,1.22v3.91h21.28v-3.91c0-.67.53-1.22,1.17-1.22s1.17.54,1.17,1.22v3.91h5.18v-6.39c0-5.58-4.37-10.11-9.75-10.11h-1.7l-5.79,7.71c-.46.62-1.38.62-1.85,0l-5.79-7.71h-1.7c-5.37,0-9.75,4.54-9.75,10.11v6.39h5.18Z"/>
  <path class="cls-5" d="m40.39,12.4c1.9-6.39-5.33-10.77-9.89-9.85-1.77.36-2.83,1.42-3.17,3.16-.08.42-.37.77-.77.91-.01,0-1.89.72-2.47,2.54-.32,1-.21,2.19.31,3.54,3.04-5.38,13.01-7.06,16-.32Z"/>
  <path class="cls-6" d="m23.54,16.23c-1.84-2.96-2.4-5.6-1.67-7.85.7-2.15,2.39-3.29,3.3-3.76.67-2.35,2.41-3.95,4.87-4.45,4.1-.83,9.18,1.48,11.56,5.26,1.2,1.91,2.72,5.81-.43,10.83v2.55c0,3.01-1.41,5.69-3.58,7.35l1.54,2.77h1.6c6.67,0,12.09,5.63,12.09,12.55v7.61c0,.67-.52,1.22-1.17,1.22H12.99c-.65,0-1.17-.54-1.17-1.22v-7.61c0-6.92,5.42-12.55,12.09-12.55h1.6l1.56-2.8c-2.14-1.67-3.53-4.33-3.53-7.32v-2.58Z"/>
  <path class="cls-5" d="m32.36,27.96c-1.15,0-2.24-.23-3.25-.65l-1.52,2.73,4.73,6.29,4.73-6.29-1.5-2.71c-.99.4-2.07.62-3.19.62Z"/>
  <path class="cls-5" d="m25.88,15.87v2.93c0,2.48,1.31,4.66,3.24,5.82l.16.09c.91.52,1.96.81,3.07.81,3.5,0,6.47-2.96,6.47-6.72v-2.87c-.36-5.12-4.22-5.56-5.87-5.51-3.32.1-7.05,2.36-7.09,5.45Z"/>
  <path class="cls-2" d="m29.05,25.24c.98.56,2.11.87,3.31.87,3.77,0,6.97-3.19,6.97-7.24v-3.09c-.38-5.52-4.54-5.99-6.32-5.94-3.57.11-7.59,2.54-7.63,5.87v3.16c0,2.68,1.41,5.02,3.49,6.27l.17.1Z"/>
  <path class="cls-4" d="m23.95,13.01c3.21-5.68,13.74-7.46,16.9-.34,2.01-6.75-5.63-11.38-10.45-10.4-1.87.38-2.99,1.5-3.35,3.34-.08.45-.4.82-.81.96-.01,0-2,.76-2.61,2.69-.34,1.06-.23,2.31.32,3.74Z"/>
  <path class="cls-2" d="m32.36,27.96c-1.15,0-2.24-.23-3.25-.65l-1.52,2.73,4.73,6.29,4.73-6.29-1.5-2.71c-.99.4-2.07.62-3.19.62Z"/>
  <path class="cls-3" d="m45.64,44.07v4.01h5.31v-6.56c0-5.72-4.48-10.37-9.99-10.37h-1.74l-5.94,7.9c-.47.63-1.42.63-1.89,0l-5.94-7.9h-1.74c-5.51,0-9.99,4.65-9.99,10.37v6.56h5.31v-4.01c0-.69.54-1.25,1.2-1.25s1.2.56,1.2,1.25v4.01h24.3"/>
  <path class="cls-9" d="m56.04,32.99c0-2.11,1.65-3.82,3.68-3.82h2.76l.92-1.91h3.68l-1,3.12c-.5,1.56-1.91,2.61-3.49,2.61h-1.03l-5.52,15.28h-5.52l5.52-15.28Z"/>
  <path class="cls-1" d="m50.52,38.72h16.56l1.84,19.1h-20.24l1.84-19.1Z"/>
  <path class="cls-10" d="m55.12,38.72h16.56l1.84,19.1h-20.24l1.84-19.1Z"/>
  <path d="m48.65,48.57l-3.84-4.21c-.08-1.16-.13-2.22-.16-3.18l4.26,4.73.7-7.28c.03-.28.17-.53.39-.69l-2.06-4.22s0-.02-.01-.03c-.1-.22-.23-.43-.38-.61.97-1.1,2.15-.25,2.62.17-.1.06-.2.12-.3.18l2.12,4.34h1.36l1.79-4.96c.1-2.56,2.13-4.59,4.6-4.59h2.19l.67-1.38c.16-.32.47-.53.82-.53h3.68c.51,0,.92.43.92.95,0,.1-.02.2-.05.3l-.59,1.84c.07.07.14.13.21.21.87.89,1.35,2.11,1.35,3.38v4.77h2.76c.47,0,.87.37.92.86l1.84,19.1c.05.52-.32.99-.82,1.05-.03,0-.06,0-.09,0h-24.84c-.51,0-.92-.43-.92-.95,0-.03,0-.06,0-.1l.88-9.15Zm8.31-15.58c0,.11-.02.23-.06.34l-1.6,4.44h2.58v-4.77c0-.94.26-1.86.76-2.64-1.02.45-1.68,1.49-1.68,2.64Zm7.01-4.77l-.67,1.38c-.16.32-.47.53-.82.53-1.52,0-2.76,1.28-2.76,2.86h0v2.38l.98-2.71c.13-.37.48-.62.86-.62h1.03c1.19,0,2.24-.79,2.62-1.96l.6-1.86h-1.83Zm3.11,4.77c0-.55-.15-1.09-.44-1.56-.8,1.55-2.36,2.51-4.05,2.51h-.39l-1.38,3.82h6.26v-4.77Zm5.42,23.87l-1.66-17.19h-14.89l-1.66,17.19h18.21Zm-20.06,0l1.66-17.19h-2.75l-1.66,17.19h2.75Z"/>
  <g>
    <path class="cls-8" d="m61.02,47.24c-1.48,0-2.69-1.21-2.69-2.69s1.21-2.69,2.69-2.69,2.69,1.21,2.69,2.69-1.21,2.69-2.69,2.69Zm0-3.86c-.65,0-1.17.53-1.17,1.17s.53,1.17,1.17,1.17,1.17-.53,1.17-1.17-.53-1.17-1.17-1.17Z"/>
    <path class="cls-8" d="m65.86,54.83c-1.48,0-2.69-1.21-2.69-2.69s1.21-2.69,2.69-2.69,2.69,1.21,2.69,2.69-1.21,2.69-2.69,2.69Zm0-3.86c-.65,0-1.17.53-1.17,1.17s.53,1.17,1.17,1.17,1.17-.53,1.17-1.17-.53-1.17-1.17-1.17Z"/>
    <path class="cls-8" d="m59.46,53.08c-.19,0-.39-.07-.54-.22-.3-.3-.3-.78,0-1.07l7.96-7.96c.3-.3.78-.3,1.07,0s.3.78,0,1.07l-7.96,7.96c-.15.15-.34.22-.54.22Z"/>
  </g>
</svg>