<?xml version="1.0" encoding="UTF-8"?>
<svg id="Layer_5" data-name="Layer 5" xmlns="http://www.w3.org/2000/svg" viewBox="0 0 85 64.6">
  <defs>
    <style>
      .cls-1 {
        fill: #ccd1d9;
      }

      .cls-1, .cls-2, .cls-3, .cls-4, .cls-5, .cls-6 {
        stroke-width: 1.27px;
      }

      .cls-1, .cls-2, .cls-3, .cls-4, .cls-5, .cls-6, .cls-7, .cls-8, .cls-9 {
        stroke: #000;
      }

      .cls-1, .cls-2, .cls-3, .cls-4, .cls-5, .cls-6, .cls-9 {
        stroke-miterlimit: 10;
      }

      .cls-10 {
        fill: #4b154c;
      }

      .cls-11 {
        fill: #d3a06c;
      }

      .cls-2 {
        fill: #e6e9ed;
      }

      .cls-3 {
        fill: #b4dd7f;
      }

      .cls-4, .cls-9 {
        fill: #f0d0b4;
      }

      .cls-5 {
        fill: #b27946;
      }

      .cls-6 {
        fill: none;
      }

      .cls-7 {
        fill: #69d6f4;
      }

      .cls-7, .cls-8 {
        stroke-linejoin: round;
        stroke-width: 1.08px;
      }

      .cls-8 {
        fill: #4fc1e9;
      }

      .cls-9 {
        stroke-width: 1.11px;
      }
    </style>
  </defs>
  <path class="cls-11" d="m5.01,47.08c-2.77,0-5.01,2.24-5.01,5.01v7.51h0c0,2.77,2.24,5.01,5.01,5.01h74.99c2.77,0,5.01-2.24,5.01-5.01h0v-7.51c0-2.77-2.24-5.01-5.01-5.01H5.01Z"/>
  <g>
    <path class="cls-8" d="m79.94,44.47l-5.01,5.01-5.75,5.75c-1.13,1.13-2.67,1.76-4.27,1.76l5.01-12.52h10.01Z"/>
    <path class="cls-8" d="m74.94,36.96l-5.01,7.51-5.01-7.51h10.01Z"/>
    <path class="cls-8" d="m59.92,44.47l5.01,12.52c-1.6,0-3.14-.64-4.27-1.76l-5.75-5.75-5.01-5.01h10.01Z"/>
    <path class="cls-8" d="m64.92,36.96l-5.01,7.51-5.01-7.51h10.01Z"/>
    <path class="cls-7" d="m74.94,36.96l5.01,7.51h-10.01l5.01-7.51Z"/>
    <path class="cls-7" d="m69.93,44.47l-5.01,12.52-5.01-12.52h10.01Z"/>
    <path class="cls-7" d="m64.92,36.96l5.01,7.51h-10.01l5.01-7.51Z"/>
    <path class="cls-7" d="m54.91,36.96l5.01,7.51h-10.01l4.94-7.42.06-.09Z"/>
  </g>
  <path class="cls-5" d="m42.09,5.78c0,2.84-2.3,5.14-5.14,5.14h-7.72c-.71,0-1.35-.28-1.81-.76-.48-.46-.76-1.11-.76-1.81l-1.25.31c-2.24.57-3.82,2.55-3.9,4.84h-1.29c-1.03,0-1.97.41-2.65,1.05l-.76-2.26c-.3-.9-.45-1.85-.45-2.8,0-4.89,3.96-8.85,8.85-8.85h15.59c.71,0,1.29.58,1.29,1.29v3.86Z"/>
  <path class="cls-10" d="m25.36,44.37v7.72h-10.29c-3.11,0-5.71-2.21-6.3-5.14-.09-.41-.13-.85-.13-1.29v-5.97c0-5.35,4.1-9.81,9.44-10.25l3.51-.3,4.59,11.02,1.75,4.21h-2.57Z"/>
  <path class="cls-5" d="m42.09,17.36c0-2.14-1.72-3.86-3.86-3.86h-1.29v-2.57c2.84,0,5.14-2.3,5.14-5.14v11.58Z"/>
  <path class="cls-4" d="m21.51,18.64c0,.9.15,1.76.44,2.57h-1.72c-1.07,0-2.03-.44-2.73-1.13s-1.13-1.66-1.13-2.73.46-2.1,1.21-2.8c.68-.64,1.62-1.05,2.65-1.05h1.29v5.14Z"/>
  <path class="cls-4" d="m38.23,13.5c2.14,0,3.86,1.72,3.86,3.86,0,1.07-.44,2.03-1.13,2.73s-1.66,1.13-2.73,1.13h-1.72c.28-.81.44-1.67.44-2.57v-5.14h1.29Z"/>
  <path class="cls-4" d="m36.94,13.5v5.14c0,.9-.15,1.76-.44,2.57-.6,1.7-1.79,3.14-3.32,4.05-1.16.69-2.51,1.09-3.96,1.09-.09,0-.17,0-3.96-1.09-.55-.33-1.04-.72-1.49-1.17-.81-.81-1.44-1.79-1.83-2.88-.28-.81-.44-1.67-.44-2.57v-5.14c.08-2.29,1.66-4.27,3.9-4.84l1.25-.31c0,.71.28,1.35.76,1.81.46.48,1.11.76,1.81.76h7.72v2.57Z"/>
  <path class="cls-4" d="m25.26,25.27c3.79,1.09,3.87,1.09,3.96,1.09,1.45,0,2.8-.4,3.96-1.09l1.18,3.67-5.14,5.14-5.14-5.14,1.18-3.67Z"/>
  <path class="cls-9" d="m27.94,44.37c.81,0,1.58.19,2.28.54.91.44,1.67,1.16,2.17,2.03.44.76.69,1.63.69,2.57v2.57h-7.72v-7.72h2.57Z"/>
  <path class="cls-9" d="m54.95,11.15v7.5h-5.14v-3.86c0-1.07.44-2.03,1.13-2.73s1.66-1.13,2.73-1.13c.45,0,.89.08,1.29.22h0Z"/>
  <path class="cls-10" d="m57.52,21.22v1.29c0,4.64-2.23,8.76-5.69,11.34-2.35,1.76-5.29,2.8-8.46,2.8h-1.29v10.29h-9.7c-.5-.87-1.26-1.59-2.17-2.03h0s2.02-4.8,2.02-4.8l4.72-11.18h6.42c3.55,0,6.43-2.88,6.43-6.43v-3.86h5.14c0,1.41,1.16,2.57,2.57,2.57Z"/>
  <path class="cls-2" d="m28.76,34.26l2.55,5.11-1.71,4.05h0c-.59-.28-1.24-.45-1.93-.45l-1.48-3.56,2.57-5.15Z"/>
  <path class="cls-1" d="m34.03,29.25l2.01-.04-4.73,10.17-2.55-5.11,5.27-5.02Z"/>
  <path class="cls-1" d="m24.08,28.93l5.14,5.14-3.04,6.08-4.59-11.02,2.48-.21Z"/>
  <polyline class="cls-6" points="15.57 37.9 15.57 44.3 13.93 46.27"/>
  <line class="cls-3" x1="15.57" y1="44.3" x2="24.84" y2="44.3"/>
</svg>